<?xml version="1.0" encoding="us-ascii" standalone="no"?><svg xmlns="http://www.w3.org/2000/svg" xmlns:xlink="http://www.w3.org/1999/xlink" contentStyleType="text/css" height="1332px" preserveAspectRatio="none" style="width:2724px;height:1332px;background:#FFFFFF;" version="1.1" viewBox="0 0 2724 1332" width="2724px" zoomAndPan="magnify"><defs/><g><text fill="#000000" font-family="sans-serif" font-size="14" font-weight="bold" lengthAdjust="spacing" textLength="633.4375" x="1038.2813" y="24.5332">Diagrama UML de Componentes &#8212; Sistema de Procesamiento de Transacciones Bancarias</text><!--cluster Sistema (componentes internos)--><g id="cluster_Sistema (componentes internos)"><rect fill="none" height="971" rx="2.5" ry="2.5" style="stroke:#2C3E50;stroke-width:1.0;" width="1454" x="7" y="186.1094"/><path d="M245,186.1094 L245,196.7188 L235,206.7188 L7,206.7188 " fill="none" style="stroke:#2C3E50;stroke-width:1.0;"/><text fill="#000000" font-family="sans-serif" font-size="14" font-weight="bold" lengthAdjust="spacing" textLength="228" x="10" y="201.6426">Sistema (componentes internos)</text></g><!--cluster transaction-ingestion-service--><g id="cluster_transaction-ingestion-service"><path d="M303.5,602.1094 L512.5,602.1094 A3.75,3.75 0 0 1 515,604.6094 L522,625.7188 L542.5,625.7188 A2.5,2.5 0 0 1 545,628.2188 L545,1023.1094 A2.5,2.5 0 0 1 542.5,1025.6094 L303.5,1025.6094 A2.5,2.5 0 0 1 301,1023.1094 L301,604.6094 A2.5,2.5 0 0 1 303.5,602.1094 " fill="none" style="stroke:#000000;stroke-width:1.5;"/><line style="stroke:#000000;stroke-width:1.5;" x1="301" x2="522" y1="625.7188" y2="625.7188"/><text fill="#000000" font-family="sans-serif" font-size="14" font-weight="bold" lengthAdjust="spacing" textLength="208" x="305" y="618.6426">transaction-ingestion-service</text></g><!--cluster approval-workflow-service--><g id="cluster_approval-workflow-service"><path d="M993.5,317.1094 L1182.5,317.1094 A3.75,3.75 0 0 1 1185,319.6094 L1192,340.7188 L1214.5,340.7188 A2.5,2.5 0 0 1 1217,343.2188 L1217,705.1094 A2.5,2.5 0 0 1 1214.5,707.6094 L993.5,707.6094 A2.5,2.5 0 0 1 991,705.1094 L991,319.6094 A2.5,2.5 0 0 1 993.5,317.1094 " fill="none" style="stroke:#000000;stroke-width:1.5;"/><line style="stroke:#000000;stroke-width:1.5;" x1="991" x2="1192" y1="340.7188" y2="340.7188"/><text fill="#000000" font-family="sans-serif" font-size="14" font-weight="bold" lengthAdjust="spacing" textLength="188" x="995" y="333.6426">approval-workflow-service</text></g><!--cluster core-bank-integration-service--><g id="cluster_core-bank-integration-service"><path d="M33.5,317.1094 L245.5,317.1094 A3.75,3.75 0 0 1 248,319.6094 L255,340.7188 L274.5,340.7188 A2.5,2.5 0 0 1 277,343.2188 L277,705.1094 A2.5,2.5 0 0 1 274.5,707.6094 L33.5,707.6094 A2.5,2.5 0 0 1 31,705.1094 L31,319.6094 A2.5,2.5 0 0 1 33.5,317.1094 " fill="none" style="stroke:#000000;stroke-width:1.5;"/><line style="stroke:#000000;stroke-width:1.5;" x1="31" x2="255" y1="340.7188" y2="340.7188"/><text fill="#000000" font-family="sans-serif" font-size="14" font-weight="bold" lengthAdjust="spacing" textLength="211" x="35" y="333.6426">core-bank-integration-service</text></g><!--cluster notification-service--><g id="cluster_notification-service"><path d="M571.5,317.1094 L709.5,317.1094 A3.75,3.75 0 0 1 712,319.6094 L719,340.7188 L746.5,340.7188 A2.5,2.5 0 0 1 749,343.2188 L749,705.1094 A2.5,2.5 0 0 1 746.5,707.6094 L571.5,707.6094 A2.5,2.5 0 0 1 569,705.1094 L569,319.6094 A2.5,2.5 0 0 1 571.5,317.1094 " fill="none" style="stroke:#000000;stroke-width:1.5;"/><line style="stroke:#000000;stroke-width:1.5;" x1="569" x2="719" y1="340.7188" y2="340.7188"/><text fill="#000000" font-family="sans-serif" font-size="14" font-weight="bold" lengthAdjust="spacing" textLength="137" x="573" y="333.6426">notification-service</text></g><!--cluster history-query-service--><g id="cluster_history-query-service"><path d="M775.5,317.1094 L927.5,317.1094 A3.75,3.75 0 0 1 930,319.6094 L937,340.7188 L964.5,340.7188 A2.5,2.5 0 0 1 967,343.2188 L967,705.1094 A2.5,2.5 0 0 1 964.5,707.6094 L775.5,707.6094 A2.5,2.5 0 0 1 773,705.1094 L773,319.6094 A2.5,2.5 0 0 1 775.5,317.1094 " fill="none" style="stroke:#000000;stroke-width:1.5;"/><line style="stroke:#000000;stroke-width:1.5;" x1="773" x2="937" y1="340.7188" y2="340.7188"/><text fill="#000000" font-family="sans-serif" font-size="14" font-weight="bold" lengthAdjust="spacing" textLength="151" x="777" y="333.6426">history-query-service</text></g><!--cluster audit-logging-service--><g id="cluster_audit-logging-service"><path d="M1243.5,317.1094 L1395.5,317.1094 A3.75,3.75 0 0 1 1398,319.6094 L1405,340.7188 L1434.5,340.7188 A2.5,2.5 0 0 1 1437,343.2188 L1437,705.1094 A2.5,2.5 0 0 1 1434.5,707.6094 L1243.5,707.6094 A2.5,2.5 0 0 1 1241,705.1094 L1241,319.6094 A2.5,2.5 0 0 1 1243.5,317.1094 " fill="none" style="stroke:#000000;stroke-width:1.5;"/><line style="stroke:#000000;stroke-width:1.5;" x1="1241" x2="1405" y1="340.7188" y2="340.7188"/><text fill="#000000" font-family="sans-serif" font-size="14" font-weight="bold" lengthAdjust="spacing" textLength="151" x="1245" y="333.6426">audit-logging-service</text></g><!--cluster Sistemas externos--><g id="cluster_Sistemas externos"><rect fill="none" height="256" rx="2.5" ry="2.5" style="stroke:#2C3E50;stroke-width:1.0;" width="1233" x="1485" y="920.1094"/><path d="M1625,920.1094 L1625,930.7188 L1615,940.7188 L1485,940.7188 " fill="none" style="stroke:#2C3E50;stroke-width:1.0;"/><text fill="#000000" font-family="sans-serif" font-size="14" font-weight="bold" lengthAdjust="spacing" textLength="130" x="1488" y="935.6426">Sistemas externos</text></g><!--entity GW--><g id="elem_GW"><rect fill="#F7F9FA" height="47.6094" rx="2.5" ry="2.5" style="stroke:#445566;stroke-width:0.5;" width="120" x="906" y="222.1094"/><rect fill="#F7F9FA" height="10" style="stroke:#445566;stroke-width:0.5;" width="15" x="1006" y="227.1094"/><rect fill="#F7F9FA" height="2" style="stroke:#445566;stroke-width:0.5;" width="4" x="1004" y="229.1094"/><rect fill="#F7F9FA" height="2" style="stroke:#445566;stroke-width:0.5;" width="4" x="1004" y="233.1094"/><text fill="#000000" font-family="sans-serif" font-size="14" lengthAdjust="spacing" textLength="80" x="921" y="256.6426">API Gateway</text></g><!--entity MB--><g id="elem_MB"><path d="M675.5,1096.1094 L788.5,1096.1094 C793.5,1096.1094 793.5,1118.7188 793.5,1118.7188 C793.5,1118.7188 793.5,1141.3281 788.5,1141.3281 L675.5,1141.3281 C670.5,1141.3281 670.5,1118.7188 670.5,1118.7188 C670.5,1118.7188 670.5,1096.1094 675.5,1096.1094 " fill="#F1F1F1" style="stroke:#181818;stroke-width:0.5;"/><path d="M788.5,1096.1094 C783.5,1096.1094 783.5,1118.7188 783.5,1118.7188 C783.5,1141.3281 788.5,1141.3281 788.5,1141.3281 " fill="none" style="stroke:#181818;stroke-width:0.5;"/><text fill="#000000" font-family="sans-serif" font-size="14" lengthAdjust="spacing" textLength="103" x="675.5" y="1115.6426">Message Broker</text><text fill="#000000" font-family="sans-serif" font-size="14" lengthAdjust="spacing" textLength="46" x="675.5" y="1133.252">(Kafka)</text></g><!--entity IEventBus--><g id="elem_IEventBus"><ellipse cx="732" cy="986.1094" fill="#F1F1F1" rx="8" ry="8" style="stroke:#181818;stroke-width:0.5;"/><text fill="#000000" font-family="sans-serif" font-size="14" lengthAdjust="spacing" textLength="63" x="700.5" y="1017.6426">IEventBus</text></g><!--entity MS1--><g id="elem_MS1"><rect fill="#F7F9FA" height="47.6094" rx="2.5" ry="2.5" style="stroke:#445566;stroke-width:0.5;" width="212" x="317" y="792.1094"/><rect fill="#F7F9FA" height="10" style="stroke:#445566;stroke-width:0.5;" width="15" x="509" y="797.1094"/><rect fill="#F7F9FA" height="2" style="stroke:#445566;stroke-width:0.5;" width="4" x="507" y="799.1094"/><rect fill="#F7F9FA" height="2" style="stroke:#445566;stroke-width:0.5;" width="4" x="507" y="803.1094"/><text fill="#000000" font-family="sans-serif" font-size="14" lengthAdjust="spacing" textLength="172" x="332" y="826.6426">MS1: Transaction Ingestion</text></g><!--entity DB1--><g id="elem_DB1"><path d="M378.5,972.6094 C378.5,962.6094 423,962.6094 423,962.6094 C423,962.6094 467.5,962.6094 467.5,972.6094 L467.5,999.2188 C467.5,1009.2188 423,1009.2188 423,1009.2188 C423,1009.2188 378.5,1009.2188 378.5,999.2188 L378.5,972.6094 " fill="#F1F1F1" style="stroke:#181818;stroke-width:0.5;"/><path d="M378.5,972.6094 C378.5,982.6094 423,982.6094 423,982.6094 C423,982.6094 467.5,982.6094 467.5,972.6094 " fill="none" style="stroke:#181818;stroke-width:0.5;"/><text fill="#000000" font-family="sans-serif" font-size="14" lengthAdjust="spacing" textLength="69" x="388.5" y="1001.1426">BD Ingesta</text></g><!--entity IBatchAPI--><g id="elem_IBatchAPI"><ellipse cx="445" cy="668.1094" fill="#F1F1F1" rx="8" ry="8" style="stroke:#181818;stroke-width:0.5;"/><text fill="#000000" font-family="sans-serif" font-size="14" lengthAdjust="spacing" textLength="60" x="415" y="699.6426">IBatchAPI</text></g><!--entity MS2--><g id="elem_MS2"><rect fill="#F7F9FA" height="47.6094" rx="2.5" ry="2.5" style="stroke:#445566;stroke-width:0.5;" width="193" x="1007.5" y="474.1094"/><rect fill="#F7F9FA" height="10" style="stroke:#445566;stroke-width:0.5;" width="15" x="1180.5" y="479.1094"/><rect fill="#F7F9FA" height="2" style="stroke:#445566;stroke-width:0.5;" width="4" x="1178.5" y="481.1094"/><rect fill="#F7F9FA" height="2" style="stroke:#445566;stroke-width:0.5;" width="4" x="1178.5" y="485.1094"/><text fill="#000000" font-family="sans-serif" font-size="14" lengthAdjust="spacing" textLength="153" x="1022.5" y="508.6426">MS2: Approval Workflow</text></g><!--entity DB2--><g id="elem_DB2"><path d="M1085.5,654.6094 C1085.5,644.6094 1143,644.6094 1143,644.6094 C1143,644.6094 1200.5,644.6094 1200.5,654.6094 L1200.5,681.2188 C1200.5,691.2188 1143,691.2188 1143,691.2188 C1143,691.2188 1085.5,691.2188 1085.5,681.2188 L1085.5,654.6094 " fill="#F1F1F1" style="stroke:#181818;stroke-width:0.5;"/><path d="M1085.5,654.6094 C1085.5,664.6094 1143,664.6094 1143,664.6094 C1143,664.6094 1200.5,664.6094 1200.5,654.6094 " fill="none" style="stroke:#181818;stroke-width:0.5;"/><text fill="#000000" font-family="sans-serif" font-size="14" lengthAdjust="spacing" textLength="95" x="1095.5" y="683.1426">BD Aprobaci&#243;n</text></g><!--entity IApprovalAPI--><g id="elem_IApprovalAPI"><ellipse cx="1079" cy="383.1094" fill="#F1F1F1" rx="8" ry="8" style="stroke:#181818;stroke-width:0.5;"/><text fill="#000000" font-family="sans-serif" font-size="14" lengthAdjust="spacing" textLength="80" x="1039" y="414.6426">IApprovalAPI</text></g><!--entity MS3--><g id="elem_MS3"><rect fill="#F7F9FA" height="47.6094" rx="2.5" ry="2.5" style="stroke:#445566;stroke-width:0.5;" width="214" x="47" y="474.1094"/><rect fill="#F7F9FA" height="10" style="stroke:#445566;stroke-width:0.5;" width="15" x="241" y="479.1094"/><rect fill="#F7F9FA" height="2" style="stroke:#445566;stroke-width:0.5;" width="4" x="239" y="481.1094"/><rect fill="#F7F9FA" height="2" style="stroke:#445566;stroke-width:0.5;" width="4" x="239" y="485.1094"/><text fill="#000000" font-family="sans-serif" font-size="14" lengthAdjust="spacing" textLength="174" x="62" y="508.6426">MS3: Core Bank Integration</text></g><!--entity DB3--><g id="elem_DB3"><path d="M47,654.6094 C47,644.6094 122,644.6094 122,644.6094 C122,644.6094 197,644.6094 197,654.6094 L197,681.2188 C197,691.2188 122,691.2188 122,691.2188 C122,691.2188 47,691.2188 47,681.2188 L47,654.6094 " fill="#F1F1F1" style="stroke:#181818;stroke-width:0.5;"/><path d="M47,654.6094 C47,664.6094 122,664.6094 122,664.6094 C122,664.6094 197,664.6094 197,654.6094 " fill="none" style="stroke:#181818;stroke-width:0.5;"/><text fill="#000000" font-family="sans-serif" font-size="14" lengthAdjust="spacing" textLength="130" x="57" y="683.1426">BD Core Submission</text></g><!--entity ISubmissionAPI--><g id="elem_ISubmissionAPI"><ellipse cx="178" cy="383.1094" fill="#F1F1F1" rx="8" ry="8" style="stroke:#181818;stroke-width:0.5;"/><text fill="#000000" font-family="sans-serif" font-size="14" lengthAdjust="spacing" textLength="135" x="110.5" y="414.6426">ISubmissionQueryAPI</text></g><!--entity MS4--><g id="elem_MS4"><rect fill="#F7F9FA" height="47.6094" rx="2.5" ry="2.5" style="stroke:#445566;stroke-width:0.5;" width="145" x="586.5" y="474.1094"/><rect fill="#F7F9FA" height="10" style="stroke:#445566;stroke-width:0.5;" width="15" x="711.5" y="479.1094"/><rect fill="#F7F9FA" height="2" style="stroke:#445566;stroke-width:0.5;" width="4" x="709.5" y="481.1094"/><rect fill="#F7F9FA" height="2" style="stroke:#445566;stroke-width:0.5;" width="4" x="709.5" y="485.1094"/><text fill="#000000" font-family="sans-serif" font-size="14" lengthAdjust="spacing" textLength="105" x="601.5" y="508.6426">MS4: Notification</text></g><!--entity DB4--><g id="elem_DB4"><path d="M585,654.6094 C585,644.6094 650,644.6094 650,644.6094 C650,644.6094 715,644.6094 715,654.6094 L715,681.2188 C715,691.2188 650,691.2188 650,691.2188 C650,691.2188 585,691.2188 585,681.2188 L585,654.6094 " fill="#F1F1F1" style="stroke:#181818;stroke-width:0.5;"/><path d="M585,654.6094 C585,664.6094 650,664.6094 650,664.6094 C650,664.6094 715,664.6094 715,654.6094 " fill="none" style="stroke:#181818;stroke-width:0.5;"/><text fill="#000000" font-family="sans-serif" font-size="14" lengthAdjust="spacing" textLength="110" x="595" y="683.1426">BD Notificaciones</text></g><!--entity INotifAPI--><g id="elem_INotifAPI"><ellipse cx="659" cy="383.1094" fill="#F1F1F1" rx="8" ry="8" style="stroke:#181818;stroke-width:0.5;"/><text fill="#000000" font-family="sans-serif" font-size="14" lengthAdjust="spacing" textLength="132" x="593" y="414.6426">INotificationQueryAPI</text></g><!--entity MS5--><g id="elem_MS5"><rect fill="#F7F9FA" height="47.6094" rx="2.5" ry="2.5" style="stroke:#445566;stroke-width:0.5;" width="162" x="789" y="474.1094"/><rect fill="#F7F9FA" height="10" style="stroke:#445566;stroke-width:0.5;" width="15" x="931" y="479.1094"/><rect fill="#F7F9FA" height="2" style="stroke:#445566;stroke-width:0.5;" width="4" x="929" y="481.1094"/><rect fill="#F7F9FA" height="2" style="stroke:#445566;stroke-width:0.5;" width="4" x="929" y="485.1094"/><text fill="#000000" font-family="sans-serif" font-size="14" lengthAdjust="spacing" textLength="122" x="804" y="508.6426">MS5: History Query</text></g><!--entity DB5--><g id="elem_DB5"><path d="M789.5,654.6094 C789.5,644.6094 836,644.6094 836,644.6094 C836,644.6094 882.5,644.6094 882.5,654.6094 L882.5,681.2188 C882.5,691.2188 836,691.2188 836,691.2188 C836,691.2188 789.5,691.2188 789.5,681.2188 L789.5,654.6094 " fill="#F1F1F1" style="stroke:#181818;stroke-width:0.5;"/><path d="M789.5,654.6094 C789.5,664.6094 836,664.6094 836,664.6094 C836,664.6094 882.5,664.6094 882.5,654.6094 " fill="none" style="stroke:#181818;stroke-width:0.5;"/><text fill="#000000" font-family="sans-serif" font-size="14" lengthAdjust="spacing" textLength="73" x="799.5" y="683.1426">BD Historial</text></g><!--entity IHistoryAPI--><g id="elem_IHistoryAPI"><ellipse cx="900" cy="383.1094" fill="#F1F1F1" rx="8" ry="8" style="stroke:#181818;stroke-width:0.5;"/><text fill="#000000" font-family="sans-serif" font-size="14" lengthAdjust="spacing" textLength="67" x="866.5" y="414.6426">IHistoryAPI</text></g><!--entity MS6--><g id="elem_MS6"><rect fill="#F7F9FA" height="47.6094" rx="2.5" ry="2.5" style="stroke:#445566;stroke-width:0.5;" width="163" x="1257.5" y="474.1094"/><rect fill="#F7F9FA" height="10" style="stroke:#445566;stroke-width:0.5;" width="15" x="1400.5" y="479.1094"/><rect fill="#F7F9FA" height="2" style="stroke:#445566;stroke-width:0.5;" width="4" x="1398.5" y="481.1094"/><rect fill="#F7F9FA" height="2" style="stroke:#445566;stroke-width:0.5;" width="4" x="1398.5" y="485.1094"/><text fill="#000000" font-family="sans-serif" font-size="14" lengthAdjust="spacing" textLength="123" x="1272.5" y="508.6426">MS6: Audit Logging</text></g><!--entity DB6--><g id="elem_DB6"><path d="M1257.5,654.6094 C1257.5,644.6094 1307,644.6094 1307,644.6094 C1307,644.6094 1356.5,644.6094 1356.5,654.6094 L1356.5,681.2188 C1356.5,691.2188 1307,691.2188 1307,691.2188 C1307,691.2188 1257.5,691.2188 1257.5,681.2188 L1257.5,654.6094 " fill="#F1F1F1" style="stroke:#181818;stroke-width:0.5;"/><path d="M1257.5,654.6094 C1257.5,664.6094 1307,664.6094 1307,664.6094 C1307,664.6094 1356.5,664.6094 1356.5,654.6094 " fill="none" style="stroke:#181818;stroke-width:0.5;"/><text fill="#000000" font-family="sans-serif" font-size="14" lengthAdjust="spacing" textLength="79" x="1267.5" y="683.1426">BD Auditor&#237;a</text></g><!--entity IAuditAPI--><g id="elem_IAuditAPI"><ellipse cx="1316" cy="383.1094" fill="#F1F1F1" rx="8" ry="8" style="stroke:#181818;stroke-width:0.5;"/><text fill="#000000" font-family="sans-serif" font-size="14" lengthAdjust="spacing" textLength="56" x="1288" y="414.6426">IAuditAPI</text></g><!--entity OAuth--><g id="elem_OAuth"><rect fill="#F7F9FA" height="65.2188" rx="2.5" ry="2.5" style="stroke:#445566;stroke-width:0.5;" width="158" x="2544" y="1086.1094"/><rect fill="#F7F9FA" height="10" style="stroke:#445566;stroke-width:0.5;" width="15" x="2682" y="1091.1094"/><rect fill="#F7F9FA" height="2" style="stroke:#445566;stroke-width:0.5;" width="4" x="2680" y="1093.1094"/><rect fill="#F7F9FA" height="2" style="stroke:#445566;stroke-width:0.5;" width="4" x="2680" y="1097.1094"/><text fill="#000000" font-family="sans-serif" font-size="14" font-style="italic" lengthAdjust="spacing" textLength="66" x="2585" y="1120.6426">&#171;external&#187;</text><text fill="#000000" font-family="sans-serif" font-size="14" lengthAdjust="spacing" textLength="118" x="2559" y="1138.252">OAuth Corporativo</text></g><!--entity ITokenValidation--><g id="elem_ITokenValidation"><ellipse cx="2494" cy="986.1094" fill="#F1F1F1" rx="8" ry="8" style="stroke:#181818;stroke-width:0.5;"/><text fill="#000000" font-family="sans-serif" font-size="14" lengthAdjust="spacing" textLength="105" x="2441.5" y="1017.6426">ITokenValidation</text></g><!--entity P2--><g id="elem_P2"><rect fill="#F7F9FA" height="82.8281" rx="2.5" ry="2.5" style="stroke:#445566;stroke-width:0.5;" width="167" x="2341.5" y="1077.1094"/><rect fill="#F7F9FA" height="10" style="stroke:#445566;stroke-width:0.5;" width="15" x="2488.5" y="1082.1094"/><rect fill="#F7F9FA" height="2" style="stroke:#445566;stroke-width:0.5;" width="4" x="2486.5" y="1084.1094"/><rect fill="#F7F9FA" height="2" style="stroke:#445566;stroke-width:0.5;" width="4" x="2486.5" y="1088.1094"/><text fill="#000000" font-family="sans-serif" font-size="14" font-style="italic" lengthAdjust="spacing" textLength="66" x="2387" y="1111.6426">&#171;external&#187;</text><text fill="#000000" font-family="sans-serif" font-size="14" lengthAdjust="spacing" textLength="127" x="2356.5" y="1129.252">M&#243;dulo Autorizaci&#243;n</text><text fill="#000000" font-family="sans-serif" font-size="14" lengthAdjust="spacing" textLength="63" x="2356.5" y="1146.8613">Pr&#225;ctica 2</text></g><!--entity IAuthCheck--><g id="elem_IAuthCheck"><ellipse cx="2201" cy="986.1094" fill="#F1F1F1" rx="8" ry="8" style="stroke:#181818;stroke-width:0.5;"/><text fill="#000000" font-family="sans-serif" font-size="14" lengthAdjust="spacing" textLength="125" x="2138.5" y="1017.6426">IAuthorizationCheck</text></g><!--entity Storage--><g id="elem_Storage"><rect fill="#F7F9FA" height="65.2188" rx="2.5" ry="2.5" style="stroke:#445566;stroke-width:0.5;" width="170" x="1927" y="1086.1094"/><rect fill="#F7F9FA" height="10" style="stroke:#445566;stroke-width:0.5;" width="15" x="2077" y="1091.1094"/><rect fill="#F7F9FA" height="2" style="stroke:#445566;stroke-width:0.5;" width="4" x="2075" y="1093.1094"/><rect fill="#F7F9FA" height="2" style="stroke:#445566;stroke-width:0.5;" width="4" x="2075" y="1097.1094"/><text fill="#000000" font-family="sans-serif" font-size="14" font-style="italic" lengthAdjust="spacing" textLength="66" x="1974" y="1120.6426">&#171;external&#187;</text><text fill="#000000" font-family="sans-serif" font-size="14" lengthAdjust="spacing" textLength="130" x="1942" y="1138.252">Cloud Storage / FTP</text></g><!--entity IFileStorage--><g id="elem_IFileStorage"><ellipse cx="1911" cy="986.1094" fill="#F1F1F1" rx="8" ry="8" style="stroke:#181818;stroke-width:0.5;"/><text fill="#000000" font-family="sans-serif" font-size="14" lengthAdjust="spacing" textLength="76" x="1873" y="1017.6426">IFileStorage</text></g><!--entity Core--><g id="elem_Core"><rect fill="#F7F9FA" height="65.2188" rx="2.5" ry="2.5" style="stroke:#445566;stroke-width:0.5;" width="183" x="1708.5" y="1086.1094"/><rect fill="#F7F9FA" height="10" style="stroke:#445566;stroke-width:0.5;" width="15" x="1871.5" y="1091.1094"/><rect fill="#F7F9FA" height="2" style="stroke:#445566;stroke-width:0.5;" width="4" x="1869.5" y="1093.1094"/><rect fill="#F7F9FA" height="2" style="stroke:#445566;stroke-width:0.5;" width="4" x="1869.5" y="1097.1094"/><text fill="#000000" font-family="sans-serif" font-size="14" font-style="italic" lengthAdjust="spacing" textLength="66" x="1762" y="1120.6426">&#171;external&#187;</text><text fill="#000000" font-family="sans-serif" font-size="14" lengthAdjust="spacing" textLength="143" x="1723.5" y="1138.252">Core Bancario Externo</text></g><!--entity ICoreSubmit--><g id="elem_ICoreSubmit"><ellipse cx="1753" cy="986.1094" fill="#F1F1F1" rx="8" ry="8" style="stroke:#181818;stroke-width:0.5;"/><text fill="#000000" font-family="sans-serif" font-size="14" lengthAdjust="spacing" textLength="138" x="1684" y="1017.6426">ICoreBankSubmission</text></g><!--entity Mail--><g id="elem_Mail"><rect fill="#F7F9FA" height="65.2188" rx="2.5" ry="2.5" style="stroke:#445566;stroke-width:0.5;" width="174" x="2132" y="1086.1094"/><rect fill="#F7F9FA" height="10" style="stroke:#445566;stroke-width:0.5;" width="15" x="2286" y="1091.1094"/><rect fill="#F7F9FA" height="2" style="stroke:#445566;stroke-width:0.5;" width="4" x="2284" y="1093.1094"/><rect fill="#F7F9FA" height="2" style="stroke:#445566;stroke-width:0.5;" width="4" x="2284" y="1097.1094"/><text fill="#000000" font-family="sans-serif" font-size="14" font-style="italic" lengthAdjust="spacing" textLength="66" x="2181" y="1120.6426">&#171;external&#187;</text><text fill="#000000" font-family="sans-serif" font-size="14" lengthAdjust="spacing" textLength="134" x="2147" y="1138.252">Proveedor de Correo</text></g><!--entity IEmailDelivery--><g id="elem_IEmailDelivery"><ellipse cx="2044" cy="986.1094" fill="#F1F1F1" rx="8" ry="8" style="stroke:#181818;stroke-width:0.5;"/><text fill="#000000" font-family="sans-serif" font-size="14" lengthAdjust="spacing" textLength="88" x="2000" y="1017.6426">IEmailDelivery</text></g><!--entity AccAPI--><g id="elem_AccAPI"><rect fill="#F7F9FA" height="65.2188" rx="2.5" ry="2.5" style="stroke:#445566;stroke-width:0.5;" width="172" x="1501" y="1086.1094"/><rect fill="#F7F9FA" height="10" style="stroke:#445566;stroke-width:0.5;" width="15" x="1653" y="1091.1094"/><rect fill="#F7F9FA" height="2" style="stroke:#445566;stroke-width:0.5;" width="4" x="1651" y="1093.1094"/><rect fill="#F7F9FA" height="2" style="stroke:#445566;stroke-width:0.5;" width="4" x="1651" y="1097.1094"/><text fill="#000000" font-family="sans-serif" font-size="14" font-style="italic" lengthAdjust="spacing" textLength="132" x="1516" y="1120.6426">&#171;external, supuesto&#187;</text><text fill="#000000" font-family="sans-serif" font-size="14" lengthAdjust="spacing" textLength="118" x="1523" y="1138.252">API Cuentas/Saldo</text></g><!--entity IAccVerif--><g id="elem_IAccVerif"><ellipse cx="1571" cy="986.1094" fill="#F1F1F1" rx="8" ry="8" style="stroke:#181818;stroke-width:0.5;"/><text fill="#000000" font-family="sans-serif" font-size="14" lengthAdjust="spacing" textLength="124" x="1509" y="1017.6426">IAccountVerification</text></g><!--entity Usuario--><g id="elem_Usuario"><ellipse cx="966" cy="52.6094" fill="#F1F1F1" rx="8" ry="8" style="stroke:#181818;stroke-width:0.5;"/><path d="M966,60.6094 L966,87.6094 M953,68.6094 L979,68.6094 M966,87.6094 L953,102.6094 M966,87.6094 L979,102.6094 " fill="none" style="stroke:#181818;stroke-width:0.5;"/><text fill="#000000" font-family="sans-serif" font-size="14" lengthAdjust="spacing" textLength="48" x="942" y="118.6426">Usuario</text></g><!--link IBatchAPI to MS1--><g id="link_IBatchAPI_MS1"><path d="M443.75,677.3794 C440.47,699.1494 431.5,758.6894 426.49,791.9194 " fill="none" id="IBatchAPI-MS1" style="stroke:#181818;stroke-width:1.0;"/></g><!--link MS1 to DB1--><g id="link_MS1_DB1"><path d="M423,840.1194 C423,870.6594 423,924.5294 423,957.3094 " fill="none" id="MS1-to-DB1" style="stroke:#181818;stroke-width:1.0;"/><polygon fill="#181818" points="423,962.3794,427,953.3794,423,957.3794,419,953.3794,423,962.3794" style="stroke:#181818;stroke-width:1.0;"/></g><!--link IApprovalAPI to MS2--><g id="link_IApprovalAPI_MS2"><path d="M1080.8,392.2394 C1084.54,409.1394 1093.27,448.6194 1098.89,474.0294 " fill="none" id="IApprovalAPI-MS2" style="stroke:#181818;stroke-width:1.0;"/></g><!--link MS2 to DB2--><g id="link_MS2_DB2"><path d="M1110.36,522.2694 C1112.83,531.5294 1115.64,542.2994 1118,552.1094 C1125.16,581.8394 1132.49,616.1194 1137.35,639.4594 " fill="none" id="MS2-to-DB2" style="stroke:#181818;stroke-width:1.0;"/><polygon fill="#181818" points="1138.41,644.5694,1140.4971,634.9442,1137.3937,639.6738,1132.6641,636.5703,1138.41,644.5694" style="stroke:#181818;stroke-width:1.0;"/></g><!--link ISubmissionAPI to MS3--><g id="link_ISubmissionAPI_MS3"><path d="M176.27,392.2394 C172.68,409.1394 164.3,448.6194 158.9,474.0294 " fill="none" id="ISubmissionAPI-MS3" style="stroke:#181818;stroke-width:1.0;"/></g><!--link MS3 to DB3--><g id="link_MS3_DB3"><path d="M149.06,522.2994 C147.12,531.5694 144.91,542.3294 143,552.1094 C137.18,581.9294 130.99,616.1894 126.85,639.5094 " fill="none" id="MS3-to-DB3" style="stroke:#181818;stroke-width:1.0;"/><polygon fill="#181818" points="125.95,644.5994,131.4788,636.4488,126.8344,639.6782,123.605,635.0338,125.95,644.5994" style="stroke:#181818;stroke-width:1.0;"/></g><!--link INotifAPI to MS4--><g id="link_INotifAPI_MS4"><path d="M659,392.2394 C659,409.1394 659,448.6194 659,474.0294 " fill="none" id="INotifAPI-MS4" style="stroke:#181818;stroke-width:1.0;"/></g><!--link MS4 to DB4--><g id="link_MS4_DB4"><path d="M657.77,522.1194 C656.13,552.6594 653.25,606.5294 651.49,639.3094 " fill="none" id="MS4-to-DB4" style="stroke:#181818;stroke-width:1.0;"/><polygon fill="#181818" points="651.22,644.3794,655.7033,635.6101,651.4918,639.3868,647.7152,635.1752,651.22,644.3794" style="stroke:#181818;stroke-width:1.0;"/></g><!--link IHistoryAPI to MS5--><g id="link_IHistoryAPI_MS5"><path d="M897.84,392.2394 C893.36,409.1394 882.87,448.6194 876.13,474.0294 " fill="none" id="IHistoryAPI-MS5" style="stroke:#181818;stroke-width:1.0;"/></g><!--link MS5 to DB5--><g id="link_MS5_DB5"><path d="M864.57,522.2894 C862.45,531.5494 860.04,542.3194 858,552.1094 C851.78,581.8894 845.31,616.1594 841.01,639.4894 " fill="none" id="MS5-to-DB5" style="stroke:#181818;stroke-width:1.0;"/><polygon fill="#181818" points="840.08,644.5894,845.6587,636.4728,840.9945,639.6737,837.7937,635.0096,840.08,644.5894" style="stroke:#181818;stroke-width:1.0;"/></g><!--link IAuditAPI to MS6--><g id="link_IAuditAPI_MS6"><path d="M1317.65,392.2394 C1321.09,409.1394 1329.13,448.6194 1334.3,474.0294 " fill="none" id="IAuditAPI-MS6" style="stroke:#181818;stroke-width:1.0;"/></g><!--link MS6 to DB6--><g id="link_MS6_DB6"><path d="M1334.06,522.2994 C1332.12,531.5694 1329.91,542.3294 1328,552.1094 C1322.18,581.9294 1315.99,616.1894 1311.85,639.5094 " fill="none" id="MS6-to-DB6" style="stroke:#181818;stroke-width:1.0;"/><polygon fill="#181818" points="1310.95,644.5994,1316.4788,636.4488,1311.8344,639.6782,1308.605,635.0338,1310.95,644.5994" style="stroke:#181818;stroke-width:1.0;"/></g><!--link IEventBus to MB--><g id="link_IEventBus_MB"><path d="M732,995.2694 C732,1015.1394 732,1066.5194 732,1095.9894 " fill="none" id="IEventBus-MB" style="stroke:#181818;stroke-width:1.0;"/></g><!--link ITokenValidation to OAuth--><g id="link_ITokenValidation_OAuth"><path d="M2502.07,995.2694 C2519.61,1013.0194 2562.01,1055.9094 2591.63,1085.8694 " fill="none" id="ITokenValidation-OAuth" style="stroke:#181818;stroke-width:1.0;"/></g><!--link IAuthCheck to P2--><g id="link_IAuthCheck_P2"><path d="M2210.06,992.3894 C2234.29,1006.4994 2302.34,1046.1494 2355.45,1077.0894 " fill="none" id="IAuthCheck-P2" style="stroke:#181818;stroke-width:1.0;"/></g><!--link IFileStorage to Storage--><g id="link_IFileStorage_Storage"><path d="M1917.32,995.2694 C1931.05,1013.0194 1964.25,1055.9094 1987.44,1085.8694 " fill="none" id="IFileStorage-Storage" style="stroke:#181818;stroke-width:1.0;"/></g><!--link ICoreSubmit to Core--><g id="link_ICoreSubmit_Core"><path d="M1755.94,995.2694 C1762.33,1013.0194 1777.78,1055.9094 1788.57,1085.8694 " fill="none" id="ICoreSubmit-Core" style="stroke:#181818;stroke-width:1.0;"/></g><!--link IEmailDelivery to Mail--><g id="link_IEmailDelivery_Mail"><path d="M2053.41,994.1294 C2076.2,1011.1194 2135.5,1055.3394 2176.57,1085.9694 " fill="none" id="IEmailDelivery-Mail" style="stroke:#181818;stroke-width:1.0;"/></g><!--link IAccVerif to AccAPI--><g id="link_IAccVerif_AccAPI"><path d="M1572,995.2694 C1574.18,1013.0194 1579.44,1055.9094 1583.11,1085.8694 " fill="none" id="IAccVerif-AccAPI" style="stroke:#181818;stroke-width:1.0;"/></g><!--link Usuario to GW--><g id="link_Usuario_GW"><path d="M966,122.2594 C966,151.2094 966,190.3594 966,216.6094 " fill="none" id="Usuario-to-GW" style="stroke:#181818;stroke-width:1.0;"/><polygon fill="#181818" points="966,221.6794,970,212.6794,966,216.6794,962,212.6794,966,221.6794" style="stroke:#181818;stroke-width:1.0;"/><text fill="#000000" font-family="sans-serif" font-size="13" lengthAdjust="spacing" textLength="87" x="967" y="166.6045">HTTPS / REST</text></g><!--link GW to ITokenValidation--><g id="link_GW_ITokenValidation"><path d="M1026.28,246.6194 C1291.08,245.2494 2338,248.2994 2338,382.1094 C2338,382.1094 2338,382.1094 2338,817.1094 C2338,900.1494 2441.61,959.4194 2479.95,978.5094 " fill="none" id="GW-to-ITokenValidation" style="stroke:#181818;stroke-width:1.0;stroke-dasharray:7.0,7.0;"/><polygon fill="#181818" points="2484.71,980.8394,2478.3909,973.285,2480.2208,978.6377,2474.8682,980.4677,2484.71,980.8394" style="stroke:#181818;stroke-width:1.0;"/></g><!--link GW to IAuthCheck--><g id="link_GW_IAuthCheck"><path d="M1026.06,247.3294 C1272.61,248.9994 2194,263.2094 2194,382.1094 C2194,382.1094 2194,382.1094 2194,817.1094 C2194,874.8594 2198.18,943.6694 2200.08,971.9694 " fill="none" id="GW-to-IAuthCheck" style="stroke:#181818;stroke-width:1.0;stroke-dasharray:7.0,7.0;"/><polygon fill="#181818" points="2200.43,977.0694,2203.8031,967.8162,2200.087,972.0812,2195.822,968.365,2200.43,977.0694" style="stroke:#181818;stroke-width:1.0;"/><text fill="#000000" font-family="sans-serif" font-size="13" lengthAdjust="spacing" textLength="63" x="2206" y="566.6045">verificaci&#243;n</text><text fill="#000000" font-family="sans-serif" font-size="13" lengthAdjust="spacing" textLength="85" x="2195" y="582.9561">coarse-grained</text></g><!--link GW to IBatchAPI--><g id="link_GW_IBatchAPI"><path d="M905.98,249.1394 C807.93,253.6194 619.26,267.5394 569,309.1094 C457.25,401.5194 446.01,600.2794 445.04,653.6694 " fill="none" id="GW-to-IBatchAPI" style="stroke:#181818;stroke-width:1.0;stroke-dasharray:7.0,7.0;"/><polygon fill="#181818" points="444.98,658.9194,449.0826,649.9657,445.0371,653.9197,441.0831,649.8743,444.98,658.9194" style="stroke:#181818;stroke-width:1.0;"/></g><!--link GW to IApprovalAPI--><g id="link_GW_IApprovalAPI"><path d="M985.43,270.3194 C1009.66,299.2694 1050.2,347.6994 1068.94,370.0894 " fill="none" id="GW-to-IApprovalAPI" style="stroke:#181818;stroke-width:1.0;stroke-dasharray:7.0,7.0;"/><polygon fill="#181818" points="1072.17,373.9494,1069.4847,364.4737,1068.9705,370.1071,1063.337,369.5929,1072.17,373.9494" style="stroke:#181818;stroke-width:1.0;"/></g><!--link GW to ISubmissionAPI--><g id="link_GW_ISubmissionAPI"><path d="M905.77,247.4194 C756.39,248.9694 372.61,257.9594 257,309.1094 C226.46,322.6194 200.03,352.8794 186.88,369.8994 " fill="none" id="GW-to-ISubmissionAPI" style="stroke:#181818;stroke-width:1.0;stroke-dasharray:7.0,7.0;"/><polygon fill="#181818" points="183.83,373.9194,192.4574,369.1687,186.8529,369.9366,186.085,364.3321,183.83,373.9194" style="stroke:#181818;stroke-width:1.0;"/></g><!--link GW to INotifAPI--><g id="link_GW_INotifAPI"><path d="M905.78,262.1194 C866.92,272.8494 815.82,288.9394 773,309.1094 C734.29,327.3394 692.99,356.5594 672.35,371.9194 " fill="none" id="GW-to-INotifAPI" style="stroke:#181818;stroke-width:1.0;stroke-dasharray:7.0,7.0;"/><polygon fill="#181818" points="668.27,374.9794,677.87,372.7794,672.27,371.9794,673.07,366.3794,668.27,374.9794" style="stroke:#181818;stroke-width:1.0;"/></g><!--link GW to IHistoryAPI--><g id="link_GW_IHistoryAPI"><path d="M954.65,270.3194 C940.67,298.9094 917.41,346.4994 906.29,369.2394 " fill="none" id="GW-to-IHistoryAPI" style="stroke:#181818;stroke-width:1.0;stroke-dasharray:7.0,7.0;"/><polygon fill="#181818" points="903.99,373.9494,911.5364,367.6208,906.1861,369.4575,904.3494,364.1071,903.99,373.9494" style="stroke:#181818;stroke-width:1.0;"/></g><!--link GW to IAuditAPI--><g id="link_GW_IAuditAPI"><path d="M1026.04,255.1394 C1078.33,263.6994 1155.24,280.1294 1217,309.1094 C1251.51,325.2994 1286.03,354.4094 1303.76,370.5394 " fill="none" id="GW-to-IAuditAPI" style="stroke:#181818;stroke-width:1.0;stroke-dasharray:7.0,7.0;"/><polygon fill="#181818" points="1307.49,373.9694,1303.5665,364.9358,1303.8072,370.5875,1298.1555,370.8283,1307.49,373.9694" style="stroke:#181818;stroke-width:1.0;"/></g><!--link MS1 to IFileStorage--><g id="link_MS1_IFileStorage"><path d="M529.3,820.2894 C706,826.1794 1071.2,840.9394 1379,870.1094 C1491.95,880.8094 1518.96,894.4394 1632,904.1094 C1655.93,906.1594 1826.35,901.7094 1848,912.1094 C1874.76,924.9694 1894.67,955.0394 1904.39,972.3094 " fill="none" id="MS1-to-IFileStorage" style="stroke:#181818;stroke-width:1.0;stroke-dasharray:7.0,7.0;"/><polygon fill="#181818" points="1906.86,976.8094,1906.0485,966.994,1904.4597,972.4232,1899.0306,970.8344,1906.86,976.8094" style="stroke:#181818;stroke-width:1.0;"/></g><!--link MS1 to IAccVerif--><g id="link_MS1_IAccVerif"><path d="M529.16,818.7094 C732.12,822.5494 1168.01,834.7494 1314,870.1094 C1350.36,878.9194 1354.89,894.3194 1391,904.1094 C1421.22,912.3094 1431.58,901.3794 1461,912.1094 C1499.83,926.2794 1538.55,956.7194 1558.04,973.4694 " fill="none" id="MS1-to-IAccVerif" style="stroke:#181818;stroke-width:1.0;stroke-dasharray:7.0,7.0;"/><polygon fill="#181818" points="1562.12,977.0194,1557.9616,968.0914,1558.35,973.7349,1552.7065,974.1234,1562.12,977.0194" style="stroke:#181818;stroke-width:1.0;"/></g><!--link MS2 to IAuthCheck--><g id="link_MS2_IAuthCheck"><path d="M1200.75,516.6394 C1214.23,518.7094 1227.94,520.6094 1241,522.1094 C1347.4,534.3294 1622,513.7594 1722,552.1094 C1841.83,598.0694 2130.5,908.2094 2190.12,973.1894 " fill="none" id="MS2-to-IAuthCheck" style="stroke:#181818;stroke-width:1.0;stroke-dasharray:7.0,7.0;"/><polygon fill="#181818" points="2193.71,977.1094,2190.5869,967.7688,2190.3353,973.42,2184.684,973.1684,2193.71,977.1094" style="stroke:#181818;stroke-width:1.0;"/><text fill="#000000" font-family="sans-serif" font-size="13" lengthAdjust="spacing" textLength="78" x="2030.5" y="742.6045">re-verificaci&#243;n</text><text fill="#000000" font-family="sans-serif" font-size="13" lengthAdjust="spacing" textLength="173" x="1983" y="758.9561">fine-grained (defense-in-depth)</text></g><!--link MS3 to ICoreSubmit--><g id="link_MS3_ICoreSubmit"><path d="M261.14,505.9094 C564.82,525.3294 1411.04,580.5094 1437,594.1094 C1524.6,639.9894 1704.7,910.9894 1744.92,972.6394 " fill="none" id="MS3-to-ICoreSubmit" style="stroke:#181818;stroke-width:1.0;stroke-dasharray:7.0,7.0;"/><polygon fill="#181818" points="1747.77,977.0194,1746.2061,967.2955,1745.0395,972.8308,1739.5043,971.6642,1747.77,977.0194" style="stroke:#181818;stroke-width:1.0;"/></g><!--link MS4 to IEmailDelivery--><g id="link_MS4_IEmailDelivery"><path d="M731.7,515.5594 C745.36,518.1394 759.57,520.4894 773,522.1094 C934.41,541.5794 1351.68,495.2694 1504,552.1094 C1613.19,592.8494 1616.56,644.6394 1709,715.6094 C1825.59,805.1194 1864.97,814.6494 1975,912.1094 C1997.43,931.9794 2020.84,958.0694 2033.81,973.0694 " fill="none" id="MS4-to-IEmailDelivery" style="stroke:#181818;stroke-width:1.0;stroke-dasharray:7.0,7.0;"/><polygon fill="#181818" points="2037.18,976.9994,2034.3599,967.5629,2033.926,973.2031,2028.2859,972.7692,2037.18,976.9994" style="stroke:#181818;stroke-width:1.0;"/></g><!--link MS5 to IFileStorage--><g id="link_MS5_IFileStorage"><path d="M951.11,516.1994 C964.39,518.5094 978.04,520.6094 991,522.1094 C1067.56,530.9994 1618.93,510.8094 1684,552.1094 C1724.94,578.0994 1873.7,902.7894 1905.14,972.1394 " fill="none" id="MS5-to-IFileStorage" style="stroke:#181818;stroke-width:1.0;stroke-dasharray:7.0,7.0;"/><polygon fill="#181818" points="1907.35,977.0194,1907.2929,967.1707,1905.2928,972.4622,1900.0013,970.4622,1907.35,977.0194" style="stroke:#181818;stroke-width:1.0;"/><text fill="#000000" font-family="sans-serif" font-size="13" lengthAdjust="spacing" textLength="129" x="1806" y="750.6045">descarga CSV original</text></g><!--link MS3 to IBatchAPI--><g id="link_MS3_IBatchAPI"><path d="M193.3,522.1694 C207.69,531.0594 223.89,541.6094 238,552.1094 C256.45,565.8394 257.8,573.4494 277,586.1094 C330.4,621.3394 401.44,650.4294 431.09,661.8794 " fill="none" id="MS3-to-IBatchAPI" style="stroke:#181818;stroke-width:1.0;stroke-dasharray:7.0,7.0;"/><polygon fill="#181818" points="435.8,663.6894,428.8215,656.7395,431.1296,661.9041,425.965,664.2121,435.8,663.6894" style="stroke:#181818;stroke-width:1.0;"/><text fill="#000000" font-family="sans-serif" font-size="13" lengthAdjust="spacing" textLength="134" x="278" y="566.6045">consulta transacciones</text><text fill="#000000" font-family="sans-serif" font-size="13" lengthAdjust="spacing" textLength="99" x="295.5" y="582.9561">del lote aprobado</text></g><!--link MS4 to IBatchAPI--><g id="link_MS4_IBatchAPI"><path d="M586.47,522.1994 C558.77,531.9494 531.16,543.1094 520,552.1094 C484.64,580.6194 460.36,630.4194 450.26,654.0094 " fill="none" id="MS4-to-IBatchAPI" style="stroke:#181818;stroke-width:1.0;stroke-dasharray:7.0,7.0;"/><polygon fill="#181818" points="448.21,658.8894,455.3713,652.128,450.1381,654.2761,447.99,649.043,448.21,658.8894" style="stroke:#181818;stroke-width:1.0;"/><text fill="#000000" font-family="sans-serif" font-size="13" lengthAdjust="spacing" textLength="125" x="521" y="566.6045">consulta beneficiarios</text><text fill="#000000" font-family="sans-serif" font-size="13" lengthAdjust="spacing" textLength="99" x="534" y="582.9561">del lote aprobado</text></g><!--link MS1 to IEventBus--><g id="link_MS1_IEventBus"><path d="M426.5,840.4494 C430.87,860.7594 440.45,889.2194 461,904.1094 C476.18,915.1094 526.76,907.7694 545,912.1094 C612.31,928.1194 687.68,963.1994 718.13,978.1394 " fill="none" id="MS1-to-IEventBus" style="stroke:#181818;stroke-width:1.0;stroke-dasharray:7.0,7.0;"/><polygon fill="#181818" points="722.95,980.5294,716.6503,972.9588,718.4665,978.3162,713.1091,980.1324,722.95,980.5294" style="stroke:#181818;stroke-width:1.0;"/><text fill="#000000" font-family="sans-serif" font-size="13" lengthAdjust="spacing" textLength="137" x="462" y="884.6045">publica BatchUploaded,</text><text fill="#000000" font-family="sans-serif" font-size="13" lengthAdjust="spacing" textLength="127" x="467" y="900.9561">BatchValidated/Failed</text></g><!--link MS2 to IEventBus--><g id="link_MS2_IEventBus"><path d="M1094.68,522.3794 C1087.14,541.5094 1076.42,569.3994 1068,594.1094 C1042.83,667.9694 1061.11,697.7394 1017,762.1094 C940.59,873.6194 791.3,955.2094 745.61,978.4094 " fill="none" id="MS2-to-IEventBus" style="stroke:#181818;stroke-width:1.0;stroke-dasharray:7.0,7.0;"/><polygon fill="#181818" points="741.04,980.7094,750.8781,980.2496,745.5093,978.4676,747.2913,973.0988,741.04,980.7094" style="stroke:#181818;stroke-width:1.0;"/><text fill="#000000" font-family="sans-serif" font-size="13" lengthAdjust="spacing" textLength="149" x="1057" y="742.6045">consume BatchValidated;</text><text fill="#000000" font-family="sans-serif" font-size="13" lengthAdjust="spacing" textLength="187" x="1038" y="758.9561">publica BatchApproved/Rejected</text></g><!--link MS3 to IEventBus--><g id="link_MS3_IEventBus"><path d="M172.57,522.2194 C205.15,565.6494 264.55,660.0894 214,715.6094 C194.02,737.5594 100.98,706.1594 81,728.1094 C70.83,739.2794 73.77,748.8394 81,762.1094 C136.67,864.3094 189.92,869.3894 301,904.1094 C352.78,920.2994 491.86,901.1994 545,912.1094 C612.73,926.0094 687.79,962.2094 718.14,977.7894 " fill="none" id="MS3-to-IEventBus" style="stroke:#181818;stroke-width:1.0;stroke-dasharray:7.0,7.0;"/><polygon fill="#181818" points="722.62,980.1094,716.4469,972.4352,718.1739,977.822,712.7871,979.549,722.62,980.1094" style="stroke:#181818;stroke-width:1.0;"/><text fill="#000000" font-family="sans-serif" font-size="13" lengthAdjust="spacing" textLength="148" x="117" y="742.6045">consume BatchApproved;</text><text fill="#000000" font-family="sans-serif" font-size="13" lengthAdjust="spacing" textLength="218" x="82" y="758.9561">publica BatchSubmittedToCore/Failed</text></g><!--link MS4 to IEventBus--><g id="link_MS4_IEventBus"><path d="M683.88,522.2094 C701.08,539.9694 722.5,566.1394 732,594.1094 C749.38,645.2394 768.25,675.5894 732,715.6094 C713.11,736.4694 624.89,707.2494 606,728.1094 C595.86,739.3094 602.16,747.4994 606,762.1094 C629.27,850.5994 696.53,940.8994 722.04,972.9394 " fill="none" id="MS4-to-IEventBus" style="stroke:#181818;stroke-width:1.0;stroke-dasharray:7.0,7.0;"/><polygon fill="#181818" points="725.21,976.8994,722.6985,967.3761,722.0813,972.9992,716.4582,972.382,725.21,976.8994" style="stroke:#181818;stroke-width:1.0;"/><text fill="#000000" font-family="sans-serif" font-size="13" lengthAdjust="spacing" textLength="148" x="635.5" y="742.6045">consume BatchApproved;</text><text fill="#000000" font-family="sans-serif" font-size="13" lengthAdjust="spacing" textLength="205" x="607" y="758.9561">publica NotificationBatchProcessed</text></g><!--link MS5 to IEventBus--><g id="link_MS5_IEventBus"><path d="M883.19,522.4394 C905.53,565.4294 944.29,657.9994 900,715.6094 C886.83,732.7494 869.6,714.2594 853,728.1094 C772.19,795.5394 742.02,929.1594 734.22,971.7394 " fill="none" id="MS5-to-IEventBus" style="stroke:#181818;stroke-width:1.0;stroke-dasharray:7.0,7.0;"/><polygon fill="#181818" points="733.3,976.9094,738.8059,968.7433,734.1706,971.9857,730.9281,967.3504,733.3,976.9094" style="stroke:#181818;stroke-width:1.0;"/><text fill="#000000" font-family="sans-serif" font-size="13" lengthAdjust="spacing" textLength="158" x="854" y="742.6045">consume todos los eventos</text><text fill="#000000" font-family="sans-serif" font-size="13" lengthAdjust="spacing" textLength="112" x="877" y="758.9561">(proyecci&#243;n CQRS)</text></g><!--link MS6 to IEventBus--><g id="link_MS6_IEventBus"><path d="M1353.21,522.1994 C1377.9,565.6094 1421.76,660.0194 1374,715.6094 C1361.99,729.5894 1309.37,721.9494 1292,728.1094 C1263.84,738.0994 1260.58,748.4694 1234,762.1094 C1045.4,858.8994 805.83,955.7394 746.01,979.5594 " fill="none" id="MS6-to-IEventBus" style="stroke:#181818;stroke-width:1.0;stroke-dasharray:7.0,7.0;"/><polygon fill="#181818" points="741.09,981.5194,750.9308,981.9169,745.7373,979.6748,747.9794,974.4812,741.09,981.5194" style="stroke:#181818;stroke-width:1.0;"/><text fill="#000000" font-family="sans-serif" font-size="13" lengthAdjust="spacing" textLength="158" x="1293" y="742.6045">consume todos los eventos</text><text fill="#000000" font-family="sans-serif" font-size="13" lengthAdjust="spacing" textLength="57" x="1343.5" y="758.9561">(auditor&#237;a)</text></g><rect fill="#DDDDDD" height="119.6563" id="_legend" rx="7.5" ry="7.5" style="stroke:#000000;stroke-width:1.0;" width="442" x="2256" y="1193.1094"/><text fill="#000000" font-family="sans-serif" font-size="14" font-weight="bold" lengthAdjust="spacing" textLength="62" x="2265" y="1214.6426">Notaci&#243;n</text><text fill="#000000" font-family="sans-serif" font-size="14" font-weight="bold" lengthAdjust="spacing" textLength="78" x="2405" y="1214.6426">Significado</text><text fill="#000000" font-family="sans-serif" font-size="14" lengthAdjust="spacing" textLength="62" x="2265" y="1232.252">&#9675; interfaz</text><text fill="#000000" font-family="sans-serif" font-size="14" lengthAdjust="spacing" textLength="200" x="2405" y="1232.252">Interfaz provista (puerto de API)</text><text fill="#000000" font-family="sans-serif" font-size="14" lengthAdjust="spacing" textLength="16" x="2265" y="1249.8613">..&gt;</text><text fill="#000000" font-family="sans-serif" font-size="14" lengthAdjust="spacing" textLength="205" x="2405" y="1249.8613">Interfaz requerida / dependencia</text><text fill="#000000" font-family="sans-serif" font-size="14" lengthAdjust="spacing" textLength="18" x="2265" y="1267.4707">--&gt;</text><text fill="#000000" font-family="sans-serif" font-size="14" lengthAdjust="spacing" textLength="284" x="2405" y="1267.4707">Persistencia propietaria (sin acceso cruzado)</text><text fill="#000000" font-family="sans-serif" font-size="14" lengthAdjust="spacing" textLength="66" x="2265" y="1285.0801">&#171;external&#187;</text><text fill="#000000" font-family="sans-serif" font-size="14" lengthAdjust="spacing" textLength="276" x="2405" y="1285.0801">Componente fuera del sistema desarrollado</text><text fill="#000000" font-family="sans-serif" font-size="14" lengthAdjust="spacing" textLength="132" x="2265" y="1302.6895">&#171;external, supuesto&#187;</text><text fill="#000000" font-family="sans-serif" font-size="14" lengthAdjust="spacing" textLength="268" x="2405" y="1302.6895">Dependencia no definida por el enunciado</text><line style="stroke:#000000;stroke-width:1.0;" x1="2261" x2="2693" y1="1200.1094" y2="1200.1094"/><line style="stroke:#000000;stroke-width:1.0;" x1="2261" x2="2693" y1="1217.7188" y2="1217.7188"/><line style="stroke:#000000;stroke-width:1.0;" x1="2261" x2="2693" y1="1235.3281" y2="1235.3281"/><line style="stroke:#000000;stroke-width:1.0;" x1="2261" x2="2693" y1="1252.9375" y2="1252.9375"/><line style="stroke:#000000;stroke-width:1.0;" x1="2261" x2="2693" y1="1270.5469" y2="1270.5469"/><line style="stroke:#000000;stroke-width:1.0;" x1="2261" x2="2693" y1="1288.1563" y2="1288.1563"/><line style="stroke:#000000;stroke-width:1.0;" x1="2261" x2="2693" y1="1305.7656" y2="1305.7656"/><line style="stroke:#000000;stroke-width:1.0;" x1="2261" x2="2261" y1="1200.1094" y2="1305.7656"/><line style="stroke:#000000;stroke-width:1.0;" x1="2401" x2="2401" y1="1200.1094" y2="1305.7656"/><line style="stroke:#000000;stroke-width:1.0;" x1="2693" x2="2693" y1="1200.1094" y2="1305.7656"/><!--SRC=[bLVDRXit4BxhAGRkeJOG9Qt-Yhg90KksNADHgqHASeXxeBYKn8eYj-IkNASsq7kl1Nhk0-IKH_2Rv4aw_DjTQMK3oS78pWo_cMyuFrJ6Cy7WZ9E59ci2RqOl8M4mKEjKIIOpPk3pN__0X9kCeHfLOwqeCsJDKQkiOAg9D8HIZWSCz8caH7DY6cR5PKeG5MX4csGtw2nVYrP5QvOaKTTSBc1EX64LpHp_CFYp0T1NEc5we8JIy5Lhq3xlVeFIeOgGCoMInjq-b_uueQk5LhbC0iJmk-7tmzDTu4wds-tr4AT1Q8Q2DoP7AghHy84Sn2mSqafwEFxLKfcZ0tI5YEzFnvTmGJ9sJMv-1MBWufqLfnW2MI18vjELORgQI9ePzp_3z8PJTk32HP3HvDlZc5bh09VHr66Ysjab92CpOX2sVnPCo84rEEjx0nVTd52qkEoJZ2unEcTGV3apn8DcdZRtYPid0UrkYmT9KwqsH3IlbLxDXRhUmw5r3AV13Du5in1_gnx_ALhE2ENtdsJWqAfnY705ZOeWXDmAJFPg79bMZGnLcZLdHAwQrXcsmWENqZx6rj3CLlaAyrsO1bBjEYbdFibdQsuC6WPYxHgnqkHLplHDmQ-KbppQWU43EiUnNUCeLSRdd3v4hNCCFrSi0gDEdL6qyWqV27LgXAfWsvISfeou4zZKnOv8fqPaYMsez4tpTukwXqdt67xq9k0S1ohTEXLlnea8BBer5W6eYBty3c5sG_Jx52x-RhrpyeHdJQ4M2-p_FV7ti6ki2Rpq9Y7-tfwEiMPAtt-CJT-hDumrARibV8KOUx5LQc8NUY-6ZfdE4Mp4ZB4C-bgjcBwIXp-H-OeSEUXHlx7j-7o3yx6V-m8flj1er0zU2zdTxeGrmFxmKzMdvVqlftcsjBsKAjjm6-LougNFdtjZ8avETcAOOfpoBH4ySMNeGzaHuX6FuuFQrLhle_jFIIuKfjjMomS_egxaMD__XyEP4cYvSCQjnsAnFjnf2pjOChgALv8jtIVQZulPLGYj_u5GUG8JT6wp_mo6qx5p62MFU1romOAPTrSHe6b4y5whEkStZ3gxq1MS-ojndftc4RTMRsVapk1pSYVBy803yPuhSkiOtnWRnX9SmUujeZNpRaU4YyVSdg_Hu8m9li6s3uLN5Tdgin2X_hPKSNKFSgnAOfvDY4YyrrDAhQBq-mHCdkQuQrNzbYd5PqRsbkbY-8LhfjG9qJxWXPkESco2h-65_HTV3yVuYf4cnxxW2SQ45Pd03J2fyup04gkGW506rfngvQS8L-Lxn6CrmXl6TVJ5Ey3HE9sE9rX4hyydqmPAdZuzgLTzb1TrY0StWLEeVgg8Dgo92v1BbXGdYlT30L5Pmr6slRYYj5W0KL2PgML0OL8LoJfZAPEO7qo7iUL2IKAsSn9oPNPdIyYGVUGux6hv5yBYVkppePOJV3Nif6MEsOX9WSE4pPd4B77PJ5YQBOyQTaCxc4h9ssNdPDiLQNV8Rc3eCs466t91O31v2pXHS4KGKUO3d-wvZF50s2xDJCL50-R-eyJiI7p7sXfu0bBXRZ84SBO24x7wZehqjBTl5a9T2gp2hFhsly9h45YI6GFYddA9AgdjEprZac7gk2tGlQSV84LA2XlSVJ1p-sZtEkDwGOzfFXDsJhiWtgH2aOGbJwwa-mvbpv9dGym-bd9nqnM4s8dR9twuablGljOHwJNxZT7CORKVnuf7Tg5yQI34LDbAAMFhV35UzINcRFnFEEFWkW_2PIh17h4JXbcblQ53nBvXrD_2uDNhYQtdtXSXaEB9SjHe2BR0tWMiuQLT2BSlRApXal5ZmXVIHPuekBLw-Fpltt7SVi3Fo_XVondR6qiQvxBslqkns8x2CHjWnLep-tJ4AyGnc9JZ8nZRINaBOwRTm70AX4yvo-plMZWq72kGOW8LK9r_mE2Yc-fcmi_oHpJCqP_zzIpY5B9TJBHMGfJazYyOL5H6d6rM72fSskX3mpAPMvN3GJkVrFy1]--></g></svg>